<svg xmlns="http://www.w3.org/2000/svg" width="71" height="71" viewBox="0 0 71 71"><defs><clipPath id="a"><path d="M0 0h35.573v43.033H0z"/></clipPath></defs><g style="isolation:isolate"><path d="M11.958 0h47.084A11.958 11.958 0 0171 11.958v47.084A11.958 11.958 0 0159.042 71H11.958A11.958 11.958 0 010 59.042V11.958A11.958 11.958 0 0111.958 0z" fill="#efeded"/><g transform="translate(18.684 14.446)" clip-path="url(#a)" style="isolation:isolate"><path d="M35.573 10.888V.831A.837.837 0 0034.73 0H.843A.837.837 0 000 .831V42.2a.837.837 0 00.843.831h10.64a.837.837 0 00.843-.831V29.94a.837.837 0 01.843-.831h17.2a.837.837 0 00.843-.831v-9.826a.837.837 0 00-.843-.831h-17.2a.837.837 0 01-.843-.831v-4.26a.837.837 0 01.843-.831h21.582a.816.816 0 00.821-.81"/></g></g></svg>