<svg xmlns="http://www.w3.org/2000/svg" width="114.78" height="20.562"><path d="M.865 16.193A6.608 6.608 0 01.5 13.475h4.82c0 1.57.757 2.551 1.934 2.551a1.8 1.8 0 001.849-1.794 1.648 1.648 0 00-.561-1.233c-.56-.477-.56-.477-3.615-1.71C2.266 10.196.808 8.347.808 6.077.808 2.966 3.694.5 7.393.5a6.621 6.621 0 015.073 2.158 5.58 5.58 0 011.26 3.7H8.962c-.168-1.261-.673-1.822-1.709-1.822a1.556 1.556 0 00-1.654 1.485 1.4 1.4 0 00.477 1.065c.448.449.448.449 3.419 1.794 3.138 1.429 4.4 2.971 4.4 5.409 0 3.587-2.466 5.773-6.557 5.773-3.307-.001-5.605-1.346-6.473-3.869zm29.815 1.823c-1.4-1.374-1.876-2.831-1.876-5.774V.892h4.792v11.35c0 2.466.757 3.56 2.466 3.56a2.322 2.322 0 001.794-.757c.448-.533.589-1.177.589-2.8V.895h4.791v11.35c0 2.8-.5 4.371-1.876 5.745a7.1 7.1 0 01-5.3 2.047 7.435 7.435 0 01-5.38-2.021zm41.417-7.875A9.7 9.7 0 0181.99.5a9.756 9.756 0 019.948 9.78 9.744 9.744 0 01-9.921 9.752 9.674 9.674 0 01-9.917-9.891zm10 5.66a5.223 5.223 0 005.044-5.493 5.3 5.3 0 00-5.128-5.576 5.223 5.223 0 00-5.129 5.437C76.888 13.391 79.1 15.8 82.1 15.8zm19.252 3.868V.892h12.927v4.232h-8.33v3.167h6.8v4.232h-6.8v7.146zm-36.457 0V.892h4.792v18.777zm-18.663 0V.892h6.333c8.3 0 9.921 5.493 9.921 9.3 0 5.324-3.194 9.473-8.855 9.473zm6.865-4.232c3.168 0 4.6-2.046 4.6-5.072 0-3.111-1.457-5.241-4.568-5.241h-2.1v10.313zM18.71 19.669V5.124h-3.726V.892h12.218v4.232h-3.7v14.545z" fill="#c7c7c7" stroke="rgba(0,0,0,0)" stroke-miterlimit="10"/></svg>